<svg xmlns="http://www.w3.org/2000/svg" xmlns:xlink="http://www.w3.org/1999/xlink" version="1.1" x="0px" y="0px" viewBox="0 0 256 256" enable-background="new 0 0 256 256" xml:space="preserve">
<metadata> Svg Vector Icons : http://www.onlinewebfonts.com/icon </metadata>
<g><g><g><path fill="#1177FE" d="M32.2,10.7c-2.4,1.4-2.3-5.8-2.4,117.2c0,87.7,0.1,114.6,0.6,115.6c1.2,2.7-5.2,2.5,97.6,2.5c87.4,0,94.7,0,95.8-0.8c0.7-0.4,1.5-1.2,1.8-1.8c0.4-0.8,0.5-34.5,0.5-115.4c0-124.4,0.2-116.1-2.5-117.4C221.8,9.7,33.8,9.8,32.2,10.7z M216.5,128v108.3H128H39.5V128V19.7H128h88.5V128z"/><path fill="#000000" d="M62.3,49.9c-4.3,1.9-3.8,7.7,0.6,9c1.2,0.4,9.9,0.5,27,0.4l25.3-0.1l1.3-1.5c1.9-2.1,1.9-4.9-0.1-6.8l-1.4-1.3l-25.7-0.1C68.5,49.3,63.4,49.4,62.3,49.9z"/><path fill="#000000" d="M185.8,49.6c-0.5,0.1-1.2,0.5-1.7,0.7c-0.4,0.2-11,14.1-23.5,30.8c-21.2,28.3-22.8,30.5-22.7,32.2c0.1,3.8,4.3,5.9,7.6,3.8c0.4-0.3,11-14.1,23.5-30.8C190.3,58,191.7,56,191.7,54.2C191.7,51.3,188.5,48.8,185.8,49.6z"/><path fill="#000000" d="M139.5,54.7c-4.3,1.4-7.9,4.5-10,8.4c-1.1,2-1.2,3-1.2,5.9s0.2,3.9,1.2,5.9c0.7,1.3,2.1,3.2,3.1,4.2c1,1,2.9,2.4,4.2,3.1c2,1.1,3,1.2,5.9,1.2c2.9,0,3.9-0.2,5.9-1.2c3.1-1.6,5.7-4.2,7.3-7.3c1.1-2,1.2-3,1.2-5.9c0-2.9-0.2-3.9-1.2-5.9c-2.6-5-7.5-8.4-12.5-8.7C141.9,54.4,140.2,54.5,139.5,54.7z M145.3,64.6c2.1,0.9,2.9,3.5,2,6.4c-0.5,1.7-0.9,2-2.5,2.5c-1.7,0.6-2.3,0.6-3.9,0c-1.7-0.5-2.1-0.9-2.6-2.5C136.5,66.1,140.4,62.6,145.3,64.6z"/><path fill="#000000" d="M62.3,79.4c-4.3,1.9-3.8,7.7,0.6,9c1.2,0.4,9.9,0.5,26.9,0.4l25.2-0.1l1.4-1.3c1.2-1.2,1.4-1.7,1.4-3.5c0-1.8-0.2-2.4-1.4-3.5L115,79l-25.7-0.1C68.5,78.8,63.4,78.9,62.3,79.4z"/><path fill="#000000" d="M183.8,84.2c-4.3,1.4-7.9,4.5-10,8.4c-1.1,2-1.2,3-1.2,5.9c0,2.9,0.2,3.9,1.2,5.9c0.7,1.3,2.1,3.2,3.1,4.2c1,1,2.9,2.4,4.2,3.1c2,1.1,3,1.2,5.9,1.2c2.9,0,3.9-0.2,5.9-1.2c3.1-1.6,5.7-4.2,7.3-7.3c1.1-2,1.2-3,1.2-5.9c0-2.9-0.2-3.9-1.2-5.9c-2.6-5-7.5-8.4-12.5-8.7C186.2,83.9,184.4,84,183.8,84.2z M189.5,94.1c2.1,0.9,2.9,3.5,2,6.4c-0.5,1.7-0.9,2-2.5,2.5c-1.7,0.6-2.3,0.6-3.9,0c-1.7-0.5-2.1-0.9-2.6-2.5C180.7,95.6,184.6,92.1,189.5,94.1z"/><path fill="#000000" d="M62.3,108.9c-4.3,1.9-3.8,7.7,0.6,9c1.2,0.4,9.9,0.5,26.9,0.4l25.3-0.1l1.4-1.5c2.1-2,2.1-4.7,0-6.7l-1.4-1.5l-25.7-0.1C68.5,108.3,63.4,108.4,62.3,108.9z"/><path fill="#000000" d="M62.3,138.3c-1.9,0.8-3,2.4-3,4.4c0,2.1,1.1,3.6,3,4.4c2.3,1,128.9,1,131.2,0c2-0.8,3-2.3,3-4.4c0-2.1-1.1-3.6-3-4.4C191.4,137.4,64.5,137.4,62.3,138.3z"/><path fill="#000000" d="M62.3,167.8c-1.9,0.8-3,2.4-3,4.4c0,2.1,1.1,3.6,3,4.4c2.3,1,128.9,1,131.2,0c2-0.8,3-2.4,3-4.4c0-2.1-1.1-3.6-3-4.4C191.4,166.9,64.5,166.9,62.3,167.8z"/><path fill="#000000" d="M61.8,197.6c-0.8,0.5-1.7,1.3-1.9,1.8c-0.7,1.3-0.6,3.8,0.2,5.1c1.8,2.4-1.2,2.3,67.9,2.3c69.1,0,66.2,0.1,67.9-2.3c1-1.4,1-4.1,0-5.4c-1.8-2.4,1.2-2.4-68.2-2.4C64.7,196.7,63.2,196.7,61.8,197.6z"/></g></g></g>
</svg>